<?xml version="1.0" encoding="UTF-8" standalone="no"?>
<svg
   xmlns:dc="http://purl.org/dc/elements/1.1/"
   xmlns:cc="http://creativecommons.org/ns#"
   xmlns:rdf="http://www.w3.org/1999/02/22-rdf-syntax-ns#"
   xmlns:svg="http://www.w3.org/2000/svg"
   xmlns="http://www.w3.org/2000/svg"
   xmlns:sodipodi="http://sodipodi.sourceforge.net/DTD/sodipodi-0.dtd"
   xmlns:inkscape="http://www.inkscape.org/namespaces/inkscape"
   version="1.1"
   id="svg3185"
   inkscape:version="1.0.2 (e86c8708, 2021-01-15)"
   sodipodi:docname="Master Charge (1966-1979).svg"
   x="0px"
   y="0px"
   viewBox="0 0 1000 606.01643"
   xml:space="preserve"
   width="1000"
   height="606.01642"><metadata
   id="metadata1115"><rdf:RDF><cc:Work
       rdf:about=""><dc:format>image/svg+xml</dc:format><dc:type
         rdf:resource="http://purl.org/dc/dcmitype/StillImage" /><dc:title></dc:title></cc:Work></rdf:RDF></metadata><defs
   id="defs1113" /><sodipodi:namedview
   pagecolor="#ffffff"
   bordercolor="#666666"
   borderopacity="1"
   objecttolerance="10"
   gridtolerance="10"
   guidetolerance="10"
   inkscape:pageopacity="0"
   inkscape:pageshadow="2"
   inkscape:window-width="1920"
   inkscape:window-height="1080"
   id="namedview1111"
   showgrid="false"
   fit-margin-top="0"
   fit-margin-left="0"
   fit-margin-right="0"
   fit-margin-bottom="0"
   inkscape:zoom="0.7175"
   inkscape:cx="378.5"
   inkscape:cy="225.55"
   inkscape:window-x="0"
   inkscape:window-y="0"
   inkscape:window-maximized="0"
   inkscape:current-layer="svg3185" />
<style
   type="text/css"
   id="style984">
	.st0{fill-rule:evenodd;clip-rule:evenodd;fill:#FFFFFF;}
	.st1{fill-rule:evenodd;clip-rule:evenodd;fill:#FC1010;}
	.st2{fill-rule:evenodd;clip-rule:evenodd;fill:#AA0805;}
	.st3{fill-rule:evenodd;clip-rule:evenodd;fill:#CF7914;}
	.st4{fill-rule:evenodd;clip-rule:evenodd;}
	.st5{fill:#FFFFFF;}
</style>
<g
   id="g1108"
   transform="matrix(1.3252054,0,0,1.3252054,-28.491916,-31.672409)">
	<g
   id="g990">
		
		
	</g>
	<ellipse
   class="st1"
   cx="247.60001"
   cy="252.60001"
   rx="226.10001"
   ry="228.60001"
   id="ellipse992" />
	<path
   class="st2"
   d="M 776.1,252.6 C 776.1,126.3 674.9,24 550,24 425.1,24 323.8,126.3 323.8,252.6 c 0,126.3 101.2,228.6 226.1,228.6 124.9,0 226.2,-102.4 226.2,-228.6 z"
   id="path994" />
	<path
   class="st3"
   d="m 550,23.9 c -58.1,0 -111.1,22.2 -151.2,58.7 46,41.8 75,102.5 75,170 0,67.5 -29,128.2 -75,170 40.1,36.4 93.1,58.6 151.2,58.6 124.9,0 226.1,-102.4 226.1,-228.6 C 776.1,126.4 674.8,23.9 550,23.9 Z"
   id="path996" />
	<g
   id="g1034">
		<g
   id="g1006">
			<ellipse
   class="st4"
   cx="722"
   cy="396.89999"
   rx="43.599998"
   ry="43.5"
   id="ellipse998" />
			<g
   id="g1004">
				<ellipse
   class="st5"
   cx="723.59998"
   cy="368.60001"
   rx="15.9"
   ry="9.3000002"
   id="ellipse1000" />
				<path
   class="st5"
   d="m 745.6,418.2 c -2.8,-0.1 -6.6,1.2 -6.9,-2.4 v -34.4 h -42.4 v 3.2 h 9.1 c 1.4,0.1 2.7,0.3 3.5,2.4 v 28.8 c -0.4,2.1 -1.6,2.3 -4.5,2.3 h -11.5 l -0.1,3.5 h 61 v -3.5 h -8.2 z"
   id="path1002" />
			</g>
		</g>
		<g
   id="g1032">
			<rect
   x="671.59998"
   y="445.5"
   width="3.2"
   height="13.8"
   id="rect1008" />
			<polygon
   points="676.9,445.5 676.9,459.2 679.9,459.2 679.9,450.7 679.9,450.7 684.2,459.2 687.4,459.2 687.4,445.5 684.4,445.5 684.4,454 680.2,445.5 "
   id="polygon1010" />
			<polygon
   points="695.6,459.2 695.6,448.6 699.2,448.6 699.2,445.5 688.8,445.5 688.8,448.6 692.4,448.6 692.4,459.2 "
   id="polygon1012" />
			<polygon
   points="703.8,450.8 703.8,448.4 710.3,448.4 710.3,445.5 700.6,445.5 700.6,459.2 710.5,459.2 710.5,456.2 703.8,456.2 703.8,453.5 709.8,453.5 709.8,450.8 "
   id="polygon1014" />
			<path
   d="m 722.6,456.1 c 0,-0.7 -0.2,-1.4 -0.4,-2 -0.2,-0.6 -0.7,-1.1 -1.3,-1.3 v 0 c 0.6,-0.3 1.1,-0.8 1.4,-1.4 0.3,-0.6 0.5,-1.3 0.5,-2.1 0,-1.4 -0.5,-2.4 -1.3,-3 -0.8,-0.6 -1.8,-0.9 -2.9,-0.9 h -6.2 v 13.8 h 3.2 v -5 h 2.4 c 0.7,0 1.2,0.3 1.4,0.9 0.2,0.6 0.3,1.2 0.4,1.9 0,0.2 0.1,0.6 0.1,1.1 0,0.5 0.1,0.9 0.3,1.1 h 3.1 c -0.2,-0.3 -0.3,-0.8 -0.4,-1.5 -0.2,-0.7 -0.3,-1.2 -0.3,-1.6 z m -3.4,-5.1 c -0.2,0.3 -0.6,0.4 -1.1,0.4 h -2.7 v -3.1 h 2.5 c 0.5,0 0.8,0.1 1.1,0.4 0.3,0.2 0.5,0.6 0.5,1.1 0.1,0.6 0,1 -0.3,1.2 z"
   id="path1016" />
			<path
   d="m 733.1,451.7 c 0.5,-0.3 0.9,-0.7 1.2,-1.1 0.3,-0.5 0.4,-1 0.4,-1.6 -0.1,-1.4 -0.5,-2.3 -1.4,-2.8 -0.9,-0.5 -1.9,-0.7 -3,-0.6 h -5.7 v 13.8 h 5.8 c 1.3,0 2.5,-0.3 3.3,-0.9 0.9,-0.6 1.4,-1.8 1.4,-3.4 0,-0.8 -0.2,-1.5 -0.6,-2 -0.2,-0.8 -0.7,-1.2 -1.4,-1.4 z m -5.3,-3.4 h 2.5 c 0.3,0 0.6,0.1 0.9,0.3 0.3,0.2 0.4,0.5 0.4,1 0,0.5 -0.2,0.8 -0.4,1 -0.3,0.2 -0.6,0.3 -0.9,0.3 h -2.5 z m 3.8,7.7 c -0.3,0.2 -0.7,0.4 -1.2,0.3 h -2.5 v -3.2 h 2.5 c 0.5,0 0.9,0.1 1.2,0.4 0.3,0.2 0.5,0.7 0.5,1.3 -0.1,0.6 -0.2,1 -0.5,1.2 z"
   id="path1018" />
			<path
   d="m 740.2,445.5 -4.5,13.8 h 3.3 l 0.8,-2.5 h 4.2 l 0.7,2.5 h 3.3 l -4.5,-13.8 z m 0.2,8.6 1.4,-4.8 v 0 l 1.3,4.8 z"
   id="path1020" />
			<polygon
   points="748.9,445.5 748.9,459.2 751.9,459.2 751.9,450.7 751.9,450.7 756.1,459.2 759.4,459.2 759.4,445.5 756.4,445.5 756.4,454 752.1,445.5 "
   id="polygon1022" />
			<polygon
   points="764.7,450.8 764.7,445.5 761.5,445.5 761.5,459.2 764.7,459.2 764.7,455 766,453.5 769.3,459.2 773.2,459.2 768.1,450.9 772.6,445.5 768.7,445.5 "
   id="polygon1024" />
			<g
   id="g1030">
				<path
   d="m 772.1,422.2 c -0.7,-1 -1.5,-1.8 -2.6,-2.3 -1.1,-0.5 -2.2,-0.8 -3.4,-0.8 -1.2,0 -2.4,0.3 -3.5,0.8 -1.1,0.5 -1.9,1.3 -2.6,2.3 -0.7,1 -1,2.2 -1,3.7 0,1.4 0.4,2.7 1,3.7 0.7,1 1.5,1.8 2.6,2.3 1.1,0.5 2.2,0.8 3.5,0.8 1.2,0 2.4,-0.3 3.4,-0.8 1.1,-0.5 1.9,-1.3 2.6,-2.3 0.7,-1 1,-2.2 1,-3.7 0,-1.5 -0.3,-2.7 -1,-3.7 z m -2.7,7.3 c -0.9,0.9 -2,1.4 -3.3,1.4 -1.3,0 -2.5,-0.5 -3.4,-1.4 -0.9,-0.9 -1.4,-2.1 -1.4,-3.6 0,-1.5 0.5,-2.7 1.4,-3.6 0.9,-0.9 2,-1.4 3.4,-1.4 1.3,0 2.4,0.5 3.3,1.4 0.9,0.9 1.4,2.1 1.4,3.6 0,1.5 -0.4,2.7 -1.4,3.6 z"
   id="path1026" />
				<path
   d="m 769.2,424.4 c 0,-0.9 -0.3,-1.5 -0.8,-1.8 -0.5,-0.3 -1.3,-0.5 -2.3,-0.5 h -2.8 v 7.4 h 1.8 v -3.1 h 0.5 l 1.7,3.1 h 1.7 l -1.9,-3.2 c 0.6,0 1.1,-0.2 1.5,-0.5 0.4,-0.3 0.6,-0.7 0.6,-1.4 z m -2,0.6 c -0.2,0.1 -0.4,0.2 -0.7,0.2 h -1.3 v -1.7 h 0.9 c 0.3,0 0.6,0 0.9,0.1 0.3,0.1 0.5,0.3 0.5,0.7 -0.1,0.3 -0.2,0.6 -0.3,0.7 z"
   id="path1028" />
			</g>
		</g>
	</g>
	<g
   id="g1066">
		<path
   class="st5"
   d="m 131.2,172.4 c -1.2,-2.1 -2.9,-3.8 -5.2,-5.1 -2.3,-1.3 -5.4,-2 -9.1,-2 -6.2,0 -11.3,2.8 -15.3,8.3 -1.3,-3 -3.1,-5.1 -5.6,-6.4 -2.5,-1.3 -5.4,-1.9 -8.7,-1.9 -3,0 -5.7,0.8 -8.1,2.3 -2.5,1.5 -4.4,3.6 -6,6.2 H 73 v -7 H 57.4 v 51.3 h 16.1 v -25 c 0,-5.1 0.6,-8.8 1.9,-10.8 1.3,-2.1 3.4,-3.1 6.3,-3.1 2.1,0 3.6,0.8 4.6,2.5 1,1.7 1.5,4.1 1.5,7.3 v 29.2 h 16.1 v -25.1 c 0,-4.8 0.5,-8.3 1.4,-10.5 0.9,-2.2 3,-3.3 6.1,-3.3 2.1,0 3.7,0.8 4.9,2.3 1.2,1.6 1.8,3.7 1.8,6.5 v 30.2 h 16.1 v -30.7 c 0,-3 -0.2,-5.7 -0.6,-8.2 -0.5,-2.6 -1.3,-4.9 -2.4,-7 z"
   id="path1036" />
		<path
   class="st5"
   d="m 190.6,204.9 v -22.5 c 0,-3.5 -0.6,-6.4 -1.8,-8.7 -1.2,-2.3 -2.9,-4 -5.1,-5.3 -2.1,-1.3 -4.5,-2.1 -7.2,-2.6 -2.6,-0.5 -5.6,-0.7 -8.8,-0.7 -3,0 -5.9,0.3 -8.5,0.8 -2.6,0.6 -5,1.5 -7.1,2.7 -2.3,1.4 -4.1,3.2 -5.4,5.5 -1.4,2.3 -2.1,5 -2.2,8.3 h 15 c 0.8,-4.3 3.4,-6.4 8,-6.4 2,0 3.7,0.4 5.3,1.3 1.6,0.9 2.4,2.2 2.4,4 0,1.5 -0.3,2.6 -1,3.3 -0.7,0.7 -1.7,1.2 -3.3,1.5 -1.3,0.3 -3.5,0.6 -6.5,1.1 -3.5,0.5 -6.3,1 -8.6,1.5 -2.3,0.5 -4.5,1.4 -6.5,2.5 -2,1.1 -3.7,2.7 -5,4.8 -1.3,2.1 -1.9,4.7 -1.9,8 0,5.1 1.6,8.9 4.7,11.6 3.1,2.6 7.1,4 12.1,4 3.1,0 6.1,-0.5 8.9,-1.5 2.8,-1 5.3,-2.6 7.2,-4.8 0.3,2.1 0.6,3.7 0.9,4.8 h 16.2 c -0.8,-1.8 -1.3,-3.7 -1.6,-5.7 -0.1,-2 -0.2,-4.5 -0.2,-7.5 z m -17.7,0.8 c -1.5,2.3 -4,3.4 -7.6,3.4 -2,0 -3.6,-0.5 -4.8,-1.4 -1.3,-1 -1.9,-2.4 -1.9,-4.4 0,-1.8 0.6,-3.3 1.8,-4.3 1.2,-1 2.8,-1.7 4.8,-2.3 0.8,-0.2 2,-0.5 3.8,-0.9 1.4,-0.3 2.7,-0.5 3.6,-0.8 0.9,-0.3 1.8,-0.6 2.5,-1.1 0,5.7 -0.8,9.6 -2.2,11.8 z"
   id="path1038" />
		<path
   class="st5"
   d="m 243.3,193.3 c -0.9,-1.3 -2.2,-2.5 -3.9,-3.6 -1.6,-1.1 -3.6,-1.9 -6,-2.3 -1,-0.3 -2.5,-0.6 -4.5,-0.9 -2,-0.4 -3.7,-0.8 -5.3,-1.1 -1.6,-0.4 -3,-0.8 -4.2,-1.2 -1.2,-0.4 -2.2,-1 -3,-1.7 -0.8,-0.7 -1.1,-1.5 -1.1,-2.4 0,-1.6 0.7,-2.6 2,-3.1 1.4,-0.5 3,-0.7 4.9,-0.7 2.1,0 3.8,0.4 5.1,1.3 1.4,0.9 2.1,2.4 2.1,4.5 h 14.8 c -0.1,-3.2 -0.8,-5.9 -2.1,-8.1 -1.3,-2.2 -3,-3.9 -5.2,-5.1 -2.1,-1.2 -4.5,-2.1 -7.1,-2.6 -2.6,-0.5 -5.3,-0.8 -8.2,-0.8 -2.6,0 -5.2,0.3 -7.8,0.8 -2.6,0.5 -5,1.4 -7.2,2.6 -2.2,1.2 -4,2.8 -5.3,4.9 -1.4,2.1 -2,4.6 -2,7.5 0,2.8 0.5,5.1 1.5,6.9 1,1.8 2.3,3.3 3.9,4.4 1.6,1.1 3.4,1.9 5.3,2.5 1.9,0.6 4.3,1.2 7.4,1.9 2.3,0.5 3.8,0.8 4.7,1.1 0.3,0.1 0.5,0.1 0.8,0.2 2.1,0.5 3.9,1.1 5.2,1.8 1.3,0.7 1.9,1.9 1.9,3.5 0,1.8 -0.8,3.2 -2.4,4.1 -1.6,0.9 -3.3,1.3 -5.2,1.3 -2.5,0 -4.4,-0.6 -6,-1.8 -1.8,-1.4 -2.6,-3.3 -2.6,-5.7 h -15.3 c 0.1,3.4 0.9,6.3 2.2,8.8 1.3,2.5 3.2,4.3 5.4,5.7 2.3,1.4 4.8,2.4 7.5,3 2.7,0.6 5.7,0.9 8.8,0.9 3,0 5.8,-0.3 8.6,-1 2.8,-0.7 5.3,-1.7 7.5,-3.1 2.2,-1.4 4,-3.3 5.4,-5.7 1.4,-2.4 2,-5.2 2,-8.5 0,-1.2 -0.2,-2.5 -0.6,-3.9 -0.4,-1.7 -1,-3 -2,-4.4 z"
   id="path1040" />
		<path
   class="st5"
   d="m 279.3,205.9 c -2,0 -3.4,-0.3 -4.3,-1 -0.9,-0.7 -1.4,-2 -1.4,-3.9 v -23.3 h 9.9 v -10.9 h -9.9 v -15.5 h -16.1 v 15.5 h -8.1 v 10.9 h 8.1 v 22.8 c 0,3.6 0.3,6.6 0.8,8.9 0.5,2.3 1.4,4.1 2.7,5.4 1.3,1.4 3,2.3 5.2,2.9 2.2,0.6 5,0.9 8.5,0.9 1.1,0 2.8,-0.1 5,-0.3 1.7,-0.1 3,-0.2 3.8,-0.2 v -12.4 c -0.5,0 -1.2,0 -2.2,0.1 -0.9,0.1 -1.6,0.1 -2,0.1 z"
   id="path1042" />
		<path
   class="st5"
   d="m 333.8,173.6 c -2.2,-2.7 -4.9,-4.7 -8.1,-6.2 -3.2,-1.5 -6.9,-2.2 -11,-2.2 -3.6,0 -7,0.7 -10.2,2 -3.2,1.3 -6,3.2 -8.5,5.6 -2.4,2.4 -4.3,5.3 -5.7,8.6 -1.4,3.3 -2.1,6.9 -2.1,10.8 0,8.5 2.5,15.2 7.4,20 4.9,4.8 11.4,7.3 19.5,7.3 5.9,0 11,-1.4 15.5,-4.3 4.5,-2.9 7.5,-7.1 8.8,-12.7 h -15 c -0.8,1.8 -2,3.2 -3.6,4.2 -1.7,1 -3.5,1.5 -5.5,1.5 -3.3,0 -6,-1.1 -7.9,-3.2 -1.9,-2.1 -2.9,-4.9 -3.1,-8.5 h 36 c 0,0 0,-0.4 0,-1.1 0.1,-0.4 0.1,-0.7 0.1,-1 0,-4.2 -0.6,-8 -1.7,-11.5 -1.1,-3.5 -2.7,-6.6 -4.9,-9.3 z m -29.5,13.5 c 0.5,-3.2 1.7,-5.7 3.5,-7.6 1.8,-1.9 4.1,-2.9 6.9,-2.9 2.6,0 4.9,1 6.7,3 1.8,2 2.8,4.5 2.9,7.5 z"
   id="path1044" />
		<path
   class="st5"
   d="m 370.4,168.3 c -2.6,1.7 -4.5,4.2 -5.7,7.4 h -0.2 v -9 H 348.9 V 218 H 365 v -25.4 c 0,-3.4 1.1,-6.3 3.2,-8.7 2.1,-2.3 5.1,-3.5 8.9,-3.5 1.8,0 3.8,0.3 6.1,1 v -15.3 c -1.1,-0.3 -2.3,-0.4 -3.8,-0.4 -3.4,0 -6.4,0.9 -9,2.6 z"
   id="path1046" />
		<path
   class="st5"
   d="m 447.5,204.4 c -1.5,1.5 -3.6,2.3 -6.3,2.3 -3.2,0 -5.5,-1.3 -7.1,-4 -1.6,-2.6 -2.4,-5.8 -2.4,-9.5 0,-2 0.1,-3.9 0.4,-5.6 0.3,-1.7 0.8,-3.3 1.5,-4.7 0.7,-1.4 1.8,-2.6 3.2,-3.5 1.4,-0.9 3.2,-1.3 5.3,-1.3 2.1,0 3.9,0.7 5.4,2.1 1.5,1.4 2.3,3.2 2.4,5.3 h 15.6 c -0.6,-6.5 -3.1,-11.5 -7.7,-15 -4.6,-3.5 -10.1,-5.3 -16.5,-5.3 -3.9,0 -7.4,0.7 -10.6,2 -3.2,1.4 -5.9,3.3 -8.1,5.8 -2.3,2.5 -4,5.5 -5.2,8.9 -1.2,3.4 -1.8,7.2 -1.8,11.3 0,3.8 0.6,7.4 1.9,10.6 1.3,3.3 3.1,6.1 5.4,8.4 2.3,2.3 5,4.1 8.2,5.4 3.2,1.3 6.6,1.9 10.2,1.9 6.7,0 12.3,-1.9 16.8,-5.8 4.5,-3.9 7.2,-9.1 7.8,-15.9 h -15.6 c -0.3,2.9 -1.3,5.1 -2.8,6.6 z"
   id="path1048" />
		<path
   class="st5"
   d="m 520,172.1 c -1.2,-2 -3,-3.7 -5.4,-4.9 -2.4,-1.3 -5.6,-1.9 -9.4,-1.9 -3,0 -6,0.8 -8.8,2.3 -2.9,1.5 -4.9,3.6 -6.1,6.2 h -0.2 V 147.5 H 474 v 70.6 h 16.1 v -28 c 0,-3.1 0.7,-5.7 2.2,-7.8 1.5,-2.1 3.6,-3.2 6.5,-3.2 3.5,0 5.7,1.1 6.6,3.2 0.9,2.1 1.4,5.8 1.4,10.9 V 218 h 16.1 v -32.9 c 0,-2.4 -0.2,-4.6 -0.6,-6.8 -0.3,-2.1 -1.1,-4.2 -2.3,-6.2 z"
   id="path1050" />
		<path
   class="st5"
   d="m 579.1,204.9 v -22.5 c 0,-3.5 -0.6,-6.4 -1.8,-8.7 -1.2,-2.3 -2.9,-4 -5.1,-5.3 -2.1,-1.3 -4.5,-2.1 -7.2,-2.6 -2.6,-0.5 -5.6,-0.7 -8.8,-0.7 -3,0 -5.9,0.3 -8.5,0.8 -2.6,0.6 -5,1.5 -7.1,2.7 -2.3,1.4 -4.1,3.2 -5.4,5.5 -1.4,2.3 -2.1,5 -2.2,8.3 h 15 c 0.8,-4.3 3.4,-6.4 8,-6.4 2,0 3.7,0.4 5.3,1.3 1.6,0.9 2.4,2.2 2.4,4 0,1.5 -0.3,2.6 -1,3.3 -0.7,0.7 -1.7,1.2 -3.3,1.5 -1.3,0.3 -3.5,0.6 -6.5,1.1 -3.5,0.5 -6.3,1 -8.6,1.5 -2.3,0.5 -4.5,1.4 -6.5,2.5 -2,1.1 -3.7,2.7 -5,4.8 -1.3,2.1 -1.9,4.7 -1.9,8 0,5.1 1.6,8.9 4.7,11.6 3.1,2.7 7.1,4 12.1,4 3.1,0 6.1,-0.5 8.9,-1.5 2.9,-1 5.3,-2.6 7.2,-4.8 0.3,2.1 0.6,3.7 0.9,4.8 H 581 c -0.8,-1.8 -1.3,-3.7 -1.6,-5.7 -0.2,-2 -0.3,-4.5 -0.3,-7.5 z m -17.7,0.8 c -1.5,2.3 -4,3.4 -7.6,3.4 -2,0 -3.6,-0.5 -4.8,-1.4 -1.3,-1 -1.9,-2.4 -1.9,-4.4 v 0 c 0,-1.8 0.6,-3.3 1.8,-4.3 1.2,-1 2.8,-1.7 4.8,-2.3 0.8,-0.2 2,-0.5 3.8,-0.9 1.4,-0.3 2.7,-0.5 3.6,-0.8 1,-0.3 1.8,-0.6 2.5,-1.1 0,5.7 -0.7,9.6 -2.2,11.8 z"
   id="path1052" />
		<path
   class="st5"
   d="m 611.8,168.3 c -2.6,1.7 -4.5,4.2 -5.7,7.4 H 606 v -9 H 590.4 V 218 h 16.1 v -25.4 c 0,-3.4 1.1,-6.3 3.2,-8.7 2.1,-2.3 5.1,-3.5 8.9,-3.5 1.8,0 3.8,0.3 6.1,1 v -15.3 c -1.1,-0.3 -2.3,-0.4 -3.8,-0.4 -3.5,0 -6.5,0.9 -9.1,2.6 z"
   id="path1054" />
		<path
   class="st5"
   d="m 662.1,173.2 h -0.2 c -2.8,-5.3 -7.2,-7.9 -13.1,-7.9 -3.3,0 -6.4,0.6 -9.1,1.9 -2.7,1.3 -5,3.1 -6.9,5.4 -1.9,2.3 -3.3,5 -4.2,8.1 -0.9,3 -1.4,6.3 -1.4,9.7 0,7.6 1.8,13.8 5.4,18.5 3.6,4.7 9,7 16.1,7 2.6,0 5,-0.7 7.4,-2 2.3,-1.3 4.2,-3.2 5.7,-5.5 h 0.2 v 4.8 c 0,1.8 -0.1,3.4 -0.3,4.8 -0.2,1.4 -0.6,2.6 -1.1,3.7 -0.6,1.1 -1.4,1.9 -2.6,2.6 -1.1,0.6 -2.6,0.9 -4.4,0.9 -2.6,0 -4.5,-0.4 -5.9,-1.1 -1.4,-0.8 -2.4,-2.3 -2.7,-4.5 h -16.1 c 0.4,3.3 1.4,6 2.8,8.2 1.4,2.2 3.3,3.9 5.4,5 2.2,1.2 4.6,2 7.2,2.5 2.6,0.5 5.5,0.7 8.6,0.7 5.4,0 9.7,-0.8 13.1,-2.4 3.4,-1.6 5.9,-3.7 7.5,-6.1 1.6,-2.5 2.7,-5 3.2,-7.6 0.5,-2.6 0.7,-5.3 0.7,-8.1 V 166.7 H 662 v 6.5 z m 0.2,17.9 c 0,3.4 -0.8,6.3 -2.5,8.6 -1.6,2.3 -4.1,3.4 -7.3,3.4 -3.1,0 -5.4,-1.2 -6.9,-3.5 -1.5,-2.3 -2.3,-5.2 -2.3,-8.6 0,-3.6 0.7,-6.7 2.2,-9.2 1.5,-2.5 3.9,-3.7 7.1,-3.7 3.3,0 5.8,1.2 7.3,3.7 1.6,2.5 2.4,5.6 2.4,9.3 z"
   id="path1056" />
		<path
   class="st5"
   d="m 737.6,194.4 c 0,-4.2 -0.6,-8 -1.7,-11.5 -1.1,-3.5 -2.7,-6.6 -4.9,-9.3 -2.2,-2.7 -4.9,-4.7 -8.1,-6.2 -3.2,-1.5 -6.9,-2.2 -11,-2.2 -3.6,0 -7,0.7 -10.2,2 -3.2,1.3 -6,3.2 -8.5,5.6 -2.4,2.4 -4.3,5.3 -5.7,8.6 -1.4,3.3 -2.1,6.9 -2.1,10.8 0,8.5 2.5,15.2 7.4,20 4.9,4.8 11.4,7.3 19.5,7.3 5.9,0 11,-1.4 15.5,-4.3 4.5,-2.9 7.5,-7.1 8.8,-12.7 h -15 c -0.8,1.8 -2,3.2 -3.6,4.2 -1.7,1 -3.5,1.5 -5.5,1.5 -3.3,0 -6,-1.1 -7.9,-3.2 -1.9,-2.1 -2.9,-4.9 -3.1,-8.5 h 36 c 0,0 0,-0.4 0,-1.1 0.1,-0.4 0.1,-0.7 0.1,-1 z m -36.1,-7.3 c 0.5,-3.2 1.7,-5.7 3.5,-7.6 1.8,-1.9 4.1,-2.9 6.9,-2.9 2.6,0 4.9,1 6.7,3 1.8,2 2.8,4.5 2.9,7.5 z"
   id="path1058" />
		<g
   id="g1064">
			<path
   d="m 749.7,207 c 0,-1 -0.3,-1.8 -1,-2.1 -0.7,-0.4 -1.6,-0.6 -2.8,-0.6 h -3.3 v 8.9 h 2.2 v -3.7 h 0.5 l 2,3.7 h 2.1 l -2.3,-3.8 c 0.8,0 1.4,-0.2 1.8,-0.6 0.5,-0.4 0.7,-1 0.8,-1.8 z m -2.5,0.7 c -0.2,0.1 -0.5,0.2 -0.9,0.2 h -1.6 v -2 h 1.1 c 0.3,0 0.7,0 1.1,0.1 0.4,0.1 0.6,0.4 0.6,0.8 0,0.5 -0.1,0.8 -0.3,0.9 z"
   id="path1060" />
			<path
   d="m 753.2,204.3 c -0.8,-1.2 -1.8,-2.1 -3.1,-2.8 -1.3,-0.6 -2.7,-1 -4.1,-1 -1.5,0 -2.9,0.3 -4.2,1 -1.3,0.6 -2.3,1.6 -3.1,2.8 -0.8,1.2 -1.2,2.7 -1.2,4.4 0,1.7 0.4,3.2 1.2,4.4 0.8,1.2 1.8,2.1 3.1,2.8 1.3,0.6 2.7,1 4.2,1 1.5,0 2.9,-0.3 4.1,-1 1.3,-0.6 2.3,-1.6 3.1,-2.8 0.8,-1.2 1.2,-2.7 1.2,-4.4 0,-1.7 -0.4,-3.2 -1.2,-4.4 z m -3.2,8.8 c -1.1,1.1 -2.4,1.7 -4,1.7 -1.6,0 -3,-0.6 -4.1,-1.7 -1.1,-1.1 -1.6,-2.6 -1.7,-4.4 0,-1.8 0.6,-3.3 1.7,-4.4 1.1,-1.1 2.4,-1.7 4.1,-1.7 1.6,0 2.9,0.6 4,1.7 1.1,1.1 1.7,2.6 1.7,4.4 -0.1,1.9 -0.7,3.3 -1.7,4.4 z"
   id="path1062" />
		</g>
	</g>
	<g
   id="g1106">
		<polygon
   class="st5"
   points="126.2,296.1 126.2,273.3 135.9,273.3 135.9,265.4 105.9,265.4 105.9,273.3 115.6,273.3 115.6,296.1 "
   id="polygon1068" />
		<polygon
   class="st5"
   points="139.8,265.4 139.8,296.1 150.5,296.1 150.5,284 160.4,284 160.4,296.1 171.1,296.1 171.1,265.4 160.4,265.4 160.4,276.1 150.5,276.1 150.5,265.4 "
   id="polygon1070" />
		<polygon
   class="st5"
   points="187.2,277.1 187.2,273.3 205.1,273.3 205.1,265.4 176.6,265.4 176.6,296.1 205.7,296.1 205.7,288.3 187.2,288.3 187.2,284.4 203.5,284.4 203.5,277.1 "
   id="polygon1072" />
		<rect
   x="226.7"
   y="265.39999"
   class="st5"
   width="10.6"
   height="30.700001"
   id="rect1074" />
		<polygon
   class="st5"
   points="242.8,265.4 242.8,296.1 252.9,296.1 252.9,279.4 253,279.4 263.6,296.1 273.9,296.1 273.9,265.4 263.9,265.4 263.9,281.9 263.8,281.9 253.7,265.4 "
   id="polygon1076" />
		<polygon
   class="st5"
   points="298.2,296.1 298.2,273.3 307.9,273.3 307.9,265.4 277.9,265.4 277.9,273.3 287.6,273.3 287.6,296.1 "
   id="polygon1078" />
		<polygon
   class="st5"
   points="322.4,277.1 322.4,273.3 340.4,273.3 340.4,265.4 311.8,265.4 311.8,296.1 340.9,296.1 340.9,288.3 322.4,288.3 322.4,284.4 338.7,284.4 338.7,277.1 "
   id="polygon1080" />
		<path
   class="st5"
   d="m 377.2,289.6 c -0.2,-1.9 -0.7,-3.6 -1.6,-4.9 -0.9,-1.3 -2,-2.2 -3.5,-2.8 1.8,-0.6 3.1,-1.7 3.9,-3.1 0.8,-1.4 1.3,-3 1.3,-4.6 -0.1,-2.9 -1.2,-5.1 -3.4,-6.6 -2.2,-1.5 -4.8,-2.2 -7.9,-2.2 h -20.3 v 30.7 h 10.6 v -10.7 h 5.7 c 2,0.1 3.3,0.7 3.9,1.9 0.6,1.2 0.9,2.6 0.9,4.1 0.1,0.8 0.2,1.6 0.3,2.4 0.1,0.8 0.3,1.6 0.6,2.3 h 10.6 c -0.5,-0.8 -0.8,-1.8 -0.9,-3.2 0,-1.4 -0.1,-2.5 -0.2,-3.3 z m -12.1,-11.2 c -1,0.4 -2,0.5 -3.1,0.5 h -5.6 v -6.1 h 5 c 2,0 3.4,0.3 4.2,0.8 0.8,0.5 1.1,1.3 1.1,2.3 -0.1,1.2 -0.6,2.1 -1.6,2.5 z"
   id="path1082" />
		<path
   class="st5"
   d="m 407.3,279.2 c 1.3,-0.6 2.3,-1.4 3.1,-2.3 0.8,-0.9 1.1,-2.2 1.2,-3.7 0.1,-1.7 -0.6,-3.4 -2.1,-5 -1.5,-1.7 -4.5,-2.5 -8.9,-2.7 h -18.9 v 30.7 h 19.6 c 3.1,0 5.9,-0.8 8.3,-2.4 2.4,-1.6 3.7,-3.9 3.8,-7 -0.1,-2.2 -0.7,-4 -1.8,-5.2 -1.3,-1.2 -2.7,-2 -4.3,-2.4 z m -15.1,-6.5 h 5.6 c 1.1,0 2,0.1 2.6,0.5 0.6,0.3 1,0.9 1,1.6 0,1 -0.3,1.7 -1,2 -0.6,0.4 -1.5,0.5 -2.7,0.5 h -5.6 v -4.6 z m 9.2,15.5 c -0.8,0.4 -1.8,0.6 -2.9,0.6 h -6.2 v -5.7 h 6.7 c 2.5,0 3.7,0.9 3.7,2.8 -0.1,1.2 -0.5,1.9 -1.3,2.3 z"
   id="path1084" />
		<path
   class="st5"
   d="m 427,265.4 -12.7,30.7 H 425 l 1.5,-4.4 h 11 l 1.5,4.4 h 11 l -12.6,-30.7 z m 1.8,19.8 3.3,-9.5 h 0.1 l 3.1,9.5 z"
   id="path1086" />
		<polygon
   class="st5"
   points="452.4,265.4 452.4,296.1 462.5,296.1 462.5,279.4 462.5,279.4 473.1,296.1 483.5,296.1 483.5,265.4 473.4,265.4 473.4,281.9 473.3,281.9 463.3,265.4 "
   id="polygon1088" />
		<polygon
   class="st5"
   points="500,276 500,265.4 489.4,265.4 489.4,296.1 500,296.1 500,287.1 503,284.2 511.5,296.1 524.7,296.1 510.2,277.4 522.7,265.4 509.6,265.4 500.1,276 "
   id="polygon1090" />
		<path
   class="st5"
   d="m 562.9,287.7 c -0.8,0.9 -2.1,1.4 -3.9,1.5 -2.5,-0.1 -4.2,-1 -5.2,-2.7 -1,-1.7 -1.5,-3.6 -1.4,-5.8 0,-2.2 0.4,-4.1 1.4,-5.8 1,-1.7 2.7,-2.6 5.2,-2.7 2.1,0.1 3.6,0.7 4.3,1.8 0.8,1.1 1.2,2 1.2,2.7 h 10.3 c -0.5,-3.9 -2,-6.9 -4.6,-9 -2.6,-2.1 -6.3,-3.2 -11,-3.2 -5.4,0.1 -9.6,1.5 -12.7,4.4 -3.1,2.9 -4.7,6.8 -4.8,11.7 0,4.6 1.6,8.5 4.6,11.4 3,3 7.3,4.5 12.9,4.6 3.4,0 6.2,-0.7 8.6,-1.9 2.3,-1.2 4.1,-2.8 5.3,-4.8 1.2,-1.9 1.8,-4 1.8,-6.1 h -10.4 c -0.2,1.8 -0.7,3 -1.6,3.9 z"
   id="path1092" />
		<path
   class="st5"
   d="m 589.1,265.4 -12.7,30.7 h 10.7 l 1.5,-4.4 h 11 l 1.5,4.4 h 11 l -12.6,-30.7 z m 1.9,19.8 3.3,-9.5 h 0.1 l 3.1,9.5 z"
   id="path1094" />
		<path
   class="st5"
   d="m 645.9,289.6 c -0.2,-1.9 -0.7,-3.6 -1.6,-4.9 -0.9,-1.3 -2,-2.2 -3.5,-2.8 1.8,-0.6 3.1,-1.7 3.9,-3.1 0.8,-1.4 1.3,-3 1.3,-4.6 -0.1,-2.9 -1.2,-5.1 -3.4,-6.6 -2.2,-1.5 -4.8,-2.2 -7.9,-2.2 h -20.3 v 30.7 H 625 v -10.7 h 5.7 c 2,0.1 3.3,0.7 3.9,1.9 0.6,1.2 0.9,2.6 0.9,4.1 0.1,0.8 0.2,1.6 0.3,2.4 0.1,0.8 0.3,1.6 0.6,2.3 H 647 c -0.5,-0.8 -0.8,-1.8 -0.9,-3.2 0,-1.4 -0.1,-2.5 -0.2,-3.3 z m -12.1,-11.2 c -1,0.4 -2,0.5 -3.1,0.5 h -5.6 v -6.1 h 5 c 2,0 3.4,0.3 4.2,0.8 0.8,0.5 1.1,1.3 1.1,2.3 -0.1,1.2 -0.6,2.1 -1.6,2.5 z"
   id="path1096" />
		<path
   class="st5"
   d="m 681.8,273.3 c -1,-2.3 -2.7,-4.2 -5,-5.6 -2.3,-1.5 -5.3,-2.2 -9.1,-2.2 h -17.5 v 30.7 h 15.4 c 6,-0.1 10.4,-1.4 13.3,-4.1 2.9,-2.7 4.3,-6.5 4.3,-11.2 0.1,-2.8 -0.3,-5.3 -1.4,-7.6 z m -10.4,12.2 c -1,1.7 -3.1,2.6 -6.3,2.7 h -4.2 v -15 h 3.4 c 2.5,0.1 4.4,0.5 5.6,1.5 1.2,0.9 2,2 2.3,3.1 0.3,1.1 0.5,2.1 0.4,2.8 0.2,1.6 -0.3,3.2 -1.2,4.9 z"
   id="path1098" />
		<g
   id="g1104">
			<path
   d="m 691.3,290.2 c 0,-0.9 -0.3,-1.5 -0.8,-1.8 -0.5,-0.3 -1.3,-0.5 -2.3,-0.5 h -2.8 v 7.4 h 1.8 v -3.1 h 0.5 l 1.7,3.1 h 1.7 l -1.9,-3.2 c 0.6,0 1.1,-0.2 1.5,-0.5 0.4,-0.2 0.6,-0.7 0.6,-1.4 z m -2,0.6 c -0.2,0.1 -0.4,0.2 -0.7,0.2 h -1.3 v -1.7 h 0.9 c 0.3,0 0.6,0 0.9,0.1 0.3,0.1 0.5,0.3 0.5,0.7 -0.1,0.3 -0.1,0.6 -0.3,0.7 z"
   id="path1100" />
			<path
   d="m 694.3,288 c -0.7,-1 -1.5,-1.8 -2.6,-2.3 -1.1,-0.5 -2.2,-0.8 -3.4,-0.8 -1.2,0 -2.4,0.3 -3.5,0.8 -1.1,0.5 -1.9,1.3 -2.6,2.3 -0.7,1 -1,2.2 -1,3.7 0,1.4 0.4,2.7 1,3.7 0.7,1 1.5,1.8 2.6,2.3 1.1,0.5 2.2,0.8 3.5,0.8 1.2,0 2.4,-0.3 3.4,-0.8 1.1,-0.5 1.9,-1.3 2.6,-2.3 0.7,-1 1,-2.2 1,-3.7 0,-1.5 -0.4,-2.7 -1,-3.7 z m -2.7,7.3 c -0.9,0.9 -2,1.4 -3.3,1.4 -1.3,0 -2.5,-0.5 -3.4,-1.4 -0.9,-0.9 -1.4,-2.1 -1.4,-3.6 0,-1.5 0.5,-2.7 1.4,-3.6 0.9,-0.9 2,-1.4 3.4,-1.4 1.3,0 2.4,0.5 3.3,1.4 0.9,0.9 1.4,2.1 1.4,3.6 0,1.5 -0.5,2.7 -1.4,3.6 z"
   id="path1102" />
		</g>
	</g>
</g>
</svg>
